#!OML:ASF F:\VICON\USERDATA\INSTALL\rory3\rory3.ASF
:FULLY-SPECIFIED
:DEGREES
18
root 0.19387667214669202 18.17368398775465 -17.479188048649224 -3.8588014922072897 1.257854423431568 -6.4443892625437
lfemur -9.944838535029692 0.40008852103306003 -12.74801010683817
ltibia 67.12358068427307
lfoot 14.124177819565897 -20.205272678459725
ltoes -1.084938078899775
rfemur -12.488601078567626 2.6400785192710554 32.724290207912254
rtibia 26.4517059950617
rfoot -7.97499989323478 -7.972591116152012
rtoes 6.706154014491934
lowerback 11.42499564473025 -0.5205311419842383 2.363676032663479
upperback -0.00931534839701502 -0.13181642841563257 3.7229047157815107
thorax -6.43133446411615 -0.07773153915364991 2.61376527181894
lowerneck -14.94111941750733 -3.1256771192327633 -1.8948913395080909
upperneck 21.528098740907126 -3.835360337559603 -0.23750859198085994
head 9.274039445250558 -1.9739560582933922 -0.23786102195311087
lclavicle 2.9911137972303177e-16 5.531458010562508e-17
lhumerus -29.895500715735228 5.373417392759973 84.0447861190546
lradius 27.86779570810082
lwrist 7.060850861729201
lhand -29.550400051819427 17.790202176005316
lfingers 7.125020000000001
lthumb -2.883300050978523 47.75050219149574
rclavicle 2.9911137972303177e-16 5.531458010562508e-17
rhumerus -35.96839158327771 -25.74619040697631 -72.96130947897345
rradius 20.879715327315743
rwrist 9.172416072594359
rhand -14.063631050407803 24.308192644853435
rfingers 7.125020000000001
rthumb 12.067768934841762 -5.323808112183286
19
root 0.18712285913791615 18.149485436608042 -16.871788057282004 -3.735302371894475 1.4595836906005015 -6.2589198525696785
lfemur -15.631794779833509 0.30762206912139023 -12.877710434961443
ltibia 71.0979771826241
lfoot 6.817705517105938 -14.178281985822128
ltoes -3.2092652249263063
rfemur -10.899602208479712 3.38649625448873 32.92539015777573
rtibia 27.435605753010506
rfoot -9.749417797748716 -9.433067141440137
rtoes 6.759434175615375
lowerback 11.565694081348525 -0.3161165269700371 2.435705890085046
upperback 0.41718435466272946 0.11397855687658831 3.3534295349546435
thorax -6.06289184202036 0.03552969540641257 2.1349170856598185
lowerneck -16.006506223751717 -3.323862259643538 -1.6702153562020208
upperneck 21.354700875326838 -4.15416603459749 -0.1883770568633374
head 9.409245364303198 -2.093621533219032 -0.31568870650854014
lclavicle 2.991114283124891e-16 5.5314525425828107e-17
lhumerus -29.879500716668222 6.680935071585116 83.49298864414722
lradius 27.10419720378606
lwrist 8.180727769555096
lhand -27.288711467257517 20.02229782571679
lfingers 7.125020000000001
lthumb -0.6988894959645728 50.000897809807675
rclavicle 2.991114283124891e-16 5.5314525425828107e-17
rhumerus -32.979196368938396 -25.39359103631946 -74.69920522225677
rradius 21.56751379169677
rwrist 8.491157694987464
rhand -14.246129526302589 18.927114963255995
rfingers 7.125020000000001
rthumb 11.89177063362352 -10.71518587114595
20
root 0.19404566199766748 18.17528388785531 -16.240689680156294 -3.3552950060123976 0.5131190997833714 -6.133000296291096
lfemur -20.311891650510386 0.9107683541763958 -13.066109626397912
ltibia 71.7452785120131
lfoot 0.12246911677354166 -9.722719270703983
ltoes -10.183497351426702
rfemur -9.00312345259705 4.617642373100336 33.12898999215293
rtibia 27.691006119654197
rfoot -12.172195063306237 -9.958905687969267
rtoes 11.712287710444492
lowerback 11.22829783341075 0.23949779023645199 2.6767953005516896
upperback 0.554447967908487 0.8373525564682721 2.963164682978116
thorax -5.731618481426782 0.38031868620210746 1.4657296339294856
lowerneck -15.722709744515077 -3.413880057817728 -1.8148227725609316
upperneck 21.114903824943884 -4.367903188359947 0.3359285792872224
head 9.29123892709448 -2.147389497238298 -0.13115114064975208
lclavicle 2.9911139772621517e-16 5.531456215514378e-17
lhumerus -30.472499705508188 6.879594887836016 83.0881903602608
lradius 26.096099206957994
lwrist 9.434544203948066
lhand -26.93021328096928 20.637696667797854
lfingers 7.125020000000001
lthumb -0.3527343578531834 50.6170965822042
rclavicle 2.9911139772621517e-16 5.531456215514378e-17
rhumerus -30.367500480167106 -23.525894258977416 -76.76260022147854
rradius 22.490211851398215
rwrist 6.833772187833295
rhand -15.51601945358422 17.536420765714187
rfingers 7.125020000000001
rthumb 10.667080516012314 -12.172779865935096
21
root 0.3633041279005383 17.788943461460065 -9.609035425918584 -3.1465152900990536 -0.8042680526234741 -6.403360332396673
lfemur -23.178914551469795 1.8978034762675655 -12.517153697394964
ltibia 68.05675658987266
lfoot -4.652598287120455 -7.081148517297347
ltoes -9.585206764471609
rfemur -8.092562185964518 4.341837975413074 34.56201006941813
rtibia 29.76437469079226
rfoot -14.191081937181735 -9.911923857412326
rtoes 10.166147283837368
lowerback 12.27616968128826 0.7879004717386383 3.9619622194495054
upperback 0.0835617158303601 1.5747120307581404 2.5934289224493003
thorax -6.093266658272353 0.6646891155387377 0.6391515818245033
lowerneck -15.547034953222585 -3.4820062787371135 -1.9521365308692686
upperneck 21.40441822475072 -4.587450486938991 0.7721245362723959
head 9.44764105926448 -2.1861063218054246 -0.03971838834025265
lclavicle 2.9657625366661554e-16 5.3603679404283e-17
lhumerus -31.226578300204398 7.349704129382457 82.29131206996966
lradius 25.29208692079267
lwrist 7.9492765429927275
lhand -28.504899390647836 21.283105278313847
lfingers 7.125020000000001
lthumb -1.6130857061126749 51.807300108728896
rclavicle 2.9666845722497565e-16 5.341681644553074e-17
rhumerus -28.267728122768855 -20.03672142352199 -78.7306011594727
rradius 25.01490960213509
rwrist 4.618324386852571
rhand -17.785953031724997 19.258186899086756
rfingers 7.125020000000001
rthumb 8.656276659647794 -10.18368557811018
22
root 0.5072512620480688 17.60294168668847 -8.572538685189716 -2.8956366228229724 -2.183960398899523 -7.492626290508834
lfemur -26.03228201799626 2.0961001486812343 -10.956448639039234
ltibia 62.111875596162875
lfoot -9.248970333143463 -4.010996352581893
ltoes -9.27982039736382
rfemur -6.857218911146613 3.9269127970807594 35.90680071522849
rtibia 31.04386241691288
rfoot -15.215124617397105 -9.768975611548054
rtoes 8.291057559872968
lowerback 13.044245856433477 1.1741182685245948 4.924260531636014
upperback -0.10345918185992467 2.281717521543256 2.4683543027040544
thorax -6.17454208781924 1.0364326544901585 -0.11621372576573052
lowerneck -15.638625456939529 -3.4880753786677317 -1.8223464296699128
upperneck 21.436870511304754 -4.676183801394112 0.9463687691780784
head 9.535914581786368 -2.208445188826212 -0.022592841320449752
lclavicle 2.9513308726528904e-16 5.2510170345389363e-17
lhumerus -32.00624658465283 8.686073391618578 81.15081022911583
lradius 24.134935572087702
lwrist 6.874440129813145
lhand -28.89166188146422 22.132449482945137
lfingers 7.125020000000001
lthumb -2.073274870630442 52.3403137232275
rclavicle 3.0703397792423545e-16 6.068769593225199e-17
rhumerus -26.37676928048621 -16.550199316463782 -80.30987164866019
rradius 28.01131119458957
rwrist 1.9841418590988535
rhand -18.23455611638848 19.739194060580537
rfingers 7.125020000000001
rthumb 8.276814639195212 -9.955579554949807
23
root 0.663944072488527 17.397450448874952 -6.180256063176849 -2.324826688337213 -3.0971053539929683 -7.697116292950959
lfemur -27.590349326817652 1.5193949011011076 -10.27634883107563
ltibia 53.38356205063911
lfoot -10.948031315849747 -0.864223271632309
ltoes -6.946385166460766
rfemur -5.56598197237501 3.6196543792525793 36.24493052731424
rtibia 31.661668241763767
rfoot -15.336249737963247 -9.548570972219508
rtoes 8.714639038098145
lowerback 13.383981513427546 1.3767744220100304 5.245984301913407
upperback -0.1333404376588218 2.536783780192616 2.3127442098670397
thorax -6.26271134164097 1.1597345550985168 -0.6962084181750059
lowerneck -16.22669446539701 -3.5096134520388707 -1.818231245233894
upperneck 21.070603388147827 -4.727669176329452 1.2789291805965295
head 9.424951049538858 -2.2238916070881913 0.07123820890058943
lclavicle 2.9840306809767767e-16 5.480199029100228e-17
lhumerus -32.71002232331963 10.216725429516783 79.92197091104885
lradius 22.398918408241727
lwrist 5.57980900528886
lhand -29.40704845474646 21.338134712952083
lfingers 7.125020000000001
lthumb -2.637573330564808 51.4872648122978
rclavicle 3.0533634164327834e-16 5.942605299904787e-17
rhumerus -24.600529319399815 -13.683041676884365 -81.38415789199469
rradius 30.937653507789637
rwrist -0.5937413929297581
rhand -18.36847312000085 20.348611487192013
rfingers 7.125020000000001
rthumb 8.101858796685502 -9.699827140755804
24
root 0.808309192879609 17.430214212683733 -4.171931520724806 -1.6798173596939572 -3.451275828475552 -7.358049280766677
lfemur -27.684606318483066 -0.08105230487115866 -10.109099327990444
ltibia 41.928513186568104
lfoot -11.543974808784656 1.5831529157149964
ltoes -4.706442933960461
rfemur -4.026119584053255 3.3149398996483836 35.756583485798096
rtibia 31.359849518748636
rfoot -14.749665043178776 -9.329961379764212
rtoes 8.162054105616534
lowerback 13.015352381077692 1.4311529216197676 4.854797389544239
upperback -0.10762796888992093 2.606674323503128 2.1656445558413644
thorax -6.137177316168088 1.2304586565221025 -1.0225257969032133
lowerneck -16.435227663236578 -3.5868814336352743 -1.8383515308251372
upperneck 20.70178572043326 -4.836947613016012 1.548533747041941
head 9.270152256752702 -2.267324466709001 0.1305842871785156
lclavicle 2.949775278595183e-16 5.233758726722274e-17
lhumerus -33.03842940991022 12.144334678791072 78.75396976404777
lradius 20.798624922445157
lwrist 4.365324141349266
lhand -29.573009450528303 20.210502272745053
lfingers 7.125020000000001
lthumb -2.8172778680142527 50.58650096509582
rclavicle 2.9946470330100145e-16 5.5113858758361327e-17
rhumerus -22.816165843849873 -11.698162190876683 -81.98525466085258
rradius 33.03896670613209
rwrist -2.076463632974226
rhand -18.57005423785023 22.11519759008782
rfingers 7.125020000000001
rthumb 7.840857588166308 -7.905711150444935
